<svg width="168" height="159" viewBox="0 0 168 159" fill="none" xmlns="http://www.w3.org/2000/svg">
<mask id="mask0_3_336" style="mask-type:luminance" maskUnits="userSpaceOnUse" x="0" y="0" width="168" height="156">
<path d="M168 0H0V115.365H30.1056C36.5534 138.232 58.2372 155.051 84 155.051C109.763 155.051 131.447 138.232 137.894 115.365H168V0Z" fill="white"/>
</mask>
<g mask="url(#mask0_3_336)">
<path d="M84.0002 154.6C114.845 154.6 139.85 130.695 139.85 101.208C139.85 71.7199 114.845 47.8154 84.0002 47.8154C53.1549 47.8154 28.1499 71.7199 28.1499 101.208C28.1499 130.695 53.1549 154.6 84.0002 154.6Z" fill="#85C5E5"/>
<path d="M102.48 121.855C117.728 121.855 114.576 140.203 114.722 160.606H102.48V121.855Z" fill="#754437"/>
<path d="M106.3 133.603L102.48 139.727L104.392 160.606H109.728C109.857 131.654 106.3 133.603 106.3 133.603Z" fill="#6B3D34"/>
<path d="M39.1861 80.3031C39.1861 56.6426 59.2503 37.4614 84.0001 37.4614C108.75 37.4614 128.814 56.6426 128.814 80.3031C128.82 86.6782 127.335 92.974 124.468 98.7297C121.6 104.485 117.423 109.555 112.241 113.568C111.321 114.283 110.373 114.962 109.395 115.606C99.2881 121.739 86.5201 121.739 74.9936 120.758C73.8747 120.598 72.7592 120.395 71.6521 120.162C67.2286 119.231 62.9463 117.793 58.9899 115.697C58.0122 115.121 57.0641 114.499 56.1457 113.831C55.2226 113.159 54.3366 112.442 53.4913 111.682C52.6916 110.972 51.9194 110.235 51.1746 109.469C43.4562 101.551 39.1711 91.1263 39.1861 80.3031Z" fill="#754437"/>
<path d="M45.2946 101.901C45.4122 102.094 45.5281 102.287 45.649 102.476C45.7213 102.592 45.7969 102.704 45.8725 102.82C45.9834 102.992 46.0942 103.164 46.2085 103.332C46.2891 103.454 46.3765 103.573 46.4538 103.692C46.5646 103.853 46.6755 104.013 46.7898 104.174C46.8754 104.296 46.9578 104.418 47.0518 104.54C47.1627 104.701 47.2736 104.849 47.3878 105.003C47.4786 105.126 47.5726 105.248 47.665 105.372C47.7574 105.496 47.8902 105.669 48.001 105.817C48.1119 105.965 48.1942 106.063 48.2917 106.185C48.3891 106.307 48.5218 106.474 48.6394 106.618C48.757 106.763 48.8394 106.861 48.9402 106.981C49.041 107.102 49.177 107.264 49.2963 107.404C49.4156 107.543 49.503 107.643 49.6071 107.762C49.7113 107.881 49.849 108.038 49.9717 108.175C50.0943 108.311 50.185 108.411 50.2926 108.528L50.6655 108.93C50.7747 109.047 50.8856 109.161 51.0015 109.276C51.146 109.427 51.2922 109.577 51.4383 109.725L51.6416 109.93C51.8583 110.145 52.0767 110.361 52.2985 110.573L52.3422 110.616C52.5589 110.821 52.779 111.025 52.999 111.228L53.2645 111.469C53.4241 111.612 53.5837 111.755 53.745 111.896L53.9398 112.066C54.1078 112.217 54.291 112.365 54.4674 112.513C55.0162 112.97 55.5762 113.408 56.1474 113.828C57.0646 114.496 58.0127 115.118 58.9916 115.694C62.948 117.782 67.2236 119.228 71.6538 120.159C72.7609 120.392 73.8764 120.593 74.9953 120.755C82.0681 121.357 89.6113 121.587 96.7143 120.26C85.4197 117.082 31.1792 98.4098 65.3185 41.3529C64.8615 41.5537 64.4113 41.7608 63.9644 41.9761L63.8653 42.0226C63.6603 42.1206 63.4554 42.2218 63.2521 42.3246L63.0841 42.4097C62.4524 42.7309 61.8274 43.0634 61.2142 43.4103L61.063 43.4954C60.8682 43.6062 60.675 43.7186 60.4818 43.8327L60.3356 43.9194C59.7353 44.2781 59.1445 44.6491 58.5632 45.0324L58.3818 45.1528C58.1986 45.2749 58.0189 45.397 57.8391 45.5206L57.7282 45.5961C57.362 45.852 57.0002 46.1111 56.643 46.3734L56.5388 46.4505C56.3708 46.5758 56.2028 46.7043 56.0348 46.8344L55.8382 46.9854C55.6702 47.1154 55.5022 47.2455 55.3342 47.3788C54.9798 47.6599 54.6303 47.949 54.2859 48.2413L54.0944 48.4019L53.6425 48.7954L53.4241 48.9849C52.9447 49.4132 52.476 49.8506 52.0179 50.2971L51.7861 50.5235C51.6534 50.6552 51.5206 50.7869 51.3896 50.9202C51.3123 50.9989 51.235 51.0808 51.1594 51.1579C50.9287 51.3935 50.7014 51.6322 50.4774 51.8742C50.4018 51.9561 50.3245 52.0348 50.2489 52.1215C50.1296 52.2516 50.012 52.3833 49.8944 52.515L49.6407 52.8025C49.5265 52.9326 49.4122 53.0627 49.3047 53.1944C49.214 53.3004 49.1233 53.408 49.0342 53.5156C48.8545 53.7292 48.6781 53.9428 48.5034 54.158C48.4126 54.2704 48.3219 54.3829 48.2329 54.4969C48.1438 54.6109 48.0313 54.7523 47.9322 54.8824C47.833 55.0124 47.7524 55.1152 47.665 55.2325C47.5777 55.3497 47.4752 55.4814 47.3828 55.6067C47.2238 55.8208 47.067 56.0377 46.9124 56.2571C46.8284 56.3744 46.7444 56.4948 46.6621 56.6137C46.5798 56.7325 46.4773 56.8803 46.3866 57.0152L46.1362 57.3862L45.854 57.8214C45.7818 57.9323 45.7095 58.0431 45.639 58.1539C45.4894 58.3884 45.345 58.6245 45.2005 58.8606L44.9955 59.2075C44.9048 59.3601 44.8141 59.5142 44.725 59.6684C44.6578 59.7857 44.5906 59.9029 44.5251 60.0201C44.4176 60.2113 44.3118 60.404 44.2059 60.5967L44.0043 60.9725C43.8968 61.1781 43.7893 61.3821 43.6834 61.5893C43.628 61.7001 43.5709 61.8125 43.5154 61.9249C43.4281 62.1 43.3474 62.2767 43.2584 62.4533C43.2063 62.5593 43.1559 62.6653 43.1055 62.7745C42.9812 63.039 42.8597 63.3067 42.741 63.5776C42.704 63.6611 42.6687 63.7462 42.6318 63.8297C42.5427 64.0337 42.4554 64.2377 42.3697 64.4432C42.3243 64.5508 42.2806 64.6584 42.237 64.7644C42.153 64.9668 42.069 65.1708 41.9934 65.3747C41.9581 65.4631 41.9228 65.5514 41.8892 65.6398C41.7839 65.9213 41.6803 66.2029 41.5784 66.4845L41.4843 66.7576C41.4104 66.9717 41.3382 67.1859 41.2676 67.4L41.1668 67.7068C41.0878 67.9541 41.0106 68.2014 40.9366 68.4504C40.9198 68.5034 40.903 68.5564 40.8879 68.611C40.8006 68.9065 40.7166 69.2031 40.6359 69.5007C40.609 69.5955 40.5855 69.6918 40.5603 69.7866C40.5015 70.0098 40.4444 70.2331 40.3923 70.4579L40.3218 70.739C40.2495 71.0441 40.179 71.3493 40.1134 71.6561L40.0882 71.7797C40.0311 72.0528 39.9751 72.3258 39.9202 72.5988C39.9018 72.6968 39.885 72.7931 39.8665 72.8911C39.8228 73.1304 39.7808 73.3729 39.7422 73.6138C39.7287 73.6958 39.7136 73.7744 39.7018 73.858C39.6514 74.1711 39.6061 74.4859 39.5624 74.8023L39.5372 75.0111C39.5036 75.2665 39.4734 75.5234 39.4448 75.7804C39.4347 75.8768 39.423 75.9731 39.4129 76.0711C39.386 76.3409 39.3608 76.6124 39.3373 76.8838C39.3373 76.94 39.3272 76.9946 39.3238 77.0444C39.2992 77.3656 39.2774 77.6895 39.2583 78.0161C39.2583 78.1012 39.2583 78.1879 39.2466 78.273C39.2354 78.5257 39.2253 78.7779 39.2163 79.0295C39.2163 79.1242 39.2163 79.219 39.2163 79.3138C39.2163 79.643 39.2029 79.9738 39.2029 80.3047C39.2029 80.3047 39.2029 80.3159 39.2029 80.3207C39.2029 80.6773 39.2029 81.0306 39.2163 81.384C39.2163 81.506 39.2264 81.6281 39.2298 81.7501C39.2382 81.9862 39.2466 82.2223 39.2583 82.4584C39.2583 82.6014 39.2768 82.7427 39.2852 82.8856C39.2986 83.0992 39.3104 83.3128 39.3272 83.5281C39.339 83.6887 39.3541 83.8316 39.3675 83.9826C39.386 84.1849 39.4028 84.3873 39.4246 84.5881C39.4398 84.7487 39.4599 84.8996 39.4767 85.0554C39.5002 85.2498 39.5221 85.4457 39.5473 85.64C39.5674 85.8006 39.591 85.9612 39.6128 86.1138C39.6397 86.3033 39.6666 86.4944 39.6968 86.684C39.722 86.8446 39.7489 87.0052 39.7758 87.1658C39.806 87.3521 39.8379 87.54 39.8715 87.7263C39.9018 87.8869 39.932 88.0475 39.9639 88.2081C39.9992 88.3928 40.0362 88.5775 40.0731 88.7606C40.1101 88.9437 40.142 89.0818 40.1773 89.2424C40.2176 89.4255 40.2579 89.607 40.3016 89.7885C40.3453 89.97 40.3755 90.1097 40.4158 90.2591C40.4595 90.4405 40.5066 90.6204 40.5536 90.7987C40.6006 90.977 40.6359 91.1119 40.6779 91.2661C40.7283 91.4459 40.7787 91.6242 40.8308 91.8025C40.8745 91.9631 40.9198 92.1108 40.9669 92.2634C41.0206 92.4417 41.0761 92.6184 41.1349 92.795C41.1937 92.9717 41.2323 93.0986 41.2827 93.2511C41.3331 93.4037 41.4003 93.6029 41.4608 93.7779C41.5213 93.953 41.565 94.0783 41.6187 94.2276C41.6826 94.4027 41.7464 94.5777 41.8119 94.7528C41.8674 94.899 41.9211 95.0467 41.9799 95.1929L42.1882 95.7181C42.247 95.861 42.3042 96.0055 42.3562 96.1485C42.4302 96.3235 42.5058 96.5002 42.5814 96.6753C42.6418 96.8134 42.7006 96.9531 42.7628 97.0912C42.8418 97.2711 42.9308 97.4478 43.0064 97.6261C43.0686 97.7577 43.129 97.8911 43.1912 98.0228C43.2786 98.2091 43.371 98.3921 43.46 98.5752L43.6414 98.9446C43.7439 99.147 43.8498 99.3461 43.9556 99.5469C44.0094 99.6481 44.0598 99.7509 44.1152 99.852C44.4378 100.453 44.7738 101.045 45.1232 101.63C45.1719 101.705 45.2341 101.803 45.2946 101.901Z" fill="#6B3D34"/>
<path d="M39.1861 80.3031C39.1861 56.6426 59.2503 37.4614 84.0001 37.4614C108.75 37.4614 128.814 56.6426 128.814 80.3031C128.82 86.6782 127.335 92.974 124.468 98.7297C121.6 104.485 117.423 109.555 112.241 113.568C111.321 114.283 110.373 114.962 109.395 115.606C99.2881 121.739 86.5201 121.739 74.9936 120.758C73.8747 120.598 72.7592 120.395 71.6521 120.162C67.2286 119.231 62.9463 117.793 58.9899 115.697C58.0122 115.121 57.0641 114.499 56.1457 113.831C55.2226 113.159 54.3366 112.442 53.4913 111.682C52.6916 110.972 51.9194 110.235 51.1746 109.469C43.4562 101.551 39.1711 91.1263 39.1861 80.3031Z" stroke="#592D3D" stroke-width="12" stroke-miterlimit="10"/>
<path d="M64.8682 121.855C49.6189 121.855 52.7722 140.203 52.6261 160.606H64.8682V121.855Z" fill="#754437"/>
<path d="M61.6946 133.603L65.5199 139.727L63.6064 160.606H58.2758C58.1397 131.654 61.6946 133.603 61.6946 133.603Z" fill="#6B3D34"/>
<path d="M104.071 171.849H63.9291C63.3376 171.848 62.7706 171.623 62.3526 171.223C61.9345 170.823 61.6997 170.281 61.6997 169.716V123.988C61.6997 123.423 61.9345 122.88 62.3526 122.48C62.7706 122.08 63.3376 121.856 63.9291 121.855H103.112C105.311 121.855 106.304 123.085 106.304 125.048V169.709C106.305 169.99 106.247 170.268 106.136 170.528C106.024 170.787 105.859 171.023 105.652 171.222C105.445 171.421 105.198 171.579 104.927 171.686C104.656 171.794 104.365 171.849 104.071 171.849Z" fill="#754437"/>
<path d="M105.68 123.124C105.513 122.927 105.371 122.711 105.259 122.482C104.855 122.179 104.375 121.985 103.868 121.918C103.618 121.881 103.365 121.863 103.112 121.863H63.9291C63.3391 121.864 62.7733 122.087 62.3555 122.486C61.9377 122.884 61.7019 123.424 61.6997 123.988C66.5717 125.662 75.6924 126.596 84 126.596C94.5941 126.596 101.536 125.095 105.68 123.124Z" fill="#6B3D34"/>
<path d="M102.48 121.855C117.728 121.855 114.576 140.203 114.722 160.606H106.3" stroke="#592D3D" stroke-width="12" stroke-miterlimit="10" stroke-linecap="square"/>
<path d="M64.8682 121.855C49.6189 121.855 52.7722 140.203 52.6261 160.606H61.0378" stroke="#592D3D" stroke-width="12" stroke-miterlimit="10" stroke-linecap="square"/>
<path d="M63.9292 121.872L103.112 121.855" stroke="#592D3D" stroke-width="12" stroke-miterlimit="10"/>
<path d="M63.9291 171.849H83.5212C65.184 171.849 66.5684 134.72 61.6997 134.72V169.709C61.6988 169.99 61.7558 170.268 61.8675 170.527C61.9791 170.786 62.1431 171.022 62.3502 171.221C62.5573 171.42 62.8033 171.577 63.0743 171.685C63.3452 171.793 63.6357 171.848 63.9291 171.849Z" fill="#6B3D34"/>
<path d="M60.6917 138.258C60.6598 137.668 60.6732 137.079 60.7001 136.491C60.727 135.903 60.779 135.311 60.8446 134.724C60.8782 134.429 60.9118 134.135 60.9538 133.839C60.9958 133.544 61.0361 133.25 61.0966 132.955C61.2157 132.343 61.4185 131.749 61.6997 131.188C61.9809 131.749 62.1836 132.343 62.3028 132.955C62.3633 133.25 62.407 133.544 62.4456 133.839C62.4842 134.135 62.5212 134.429 62.5548 134.724C62.6186 135.314 62.669 135.903 62.6976 136.491C62.7262 137.079 62.7396 137.67 62.7077 138.258H60.6917Z" fill="#592D3D"/>
<path d="M106.3 139.727V141.012C106.344 146.473 106.344 152.094 106.3 157.514C106.3 157.975 106.3 158.433 106.3 158.884V169.711C106.301 169.991 106.244 170.269 106.132 170.528C106.02 170.787 105.856 171.023 105.649 171.222C105.442 171.42 105.196 171.578 104.925 171.685C104.655 171.793 104.364 171.848 104.071 171.849H63.9291C63.3377 171.848 62.7706 171.623 62.3526 171.223C61.9345 170.823 61.6997 170.281 61.6997 169.716V160.368C61.6997 159.965 61.6997 159.554 61.6997 159.14C61.6577 153.539 61.6577 147.918 61.6997 142.228V138.258" stroke="#592D3D" stroke-width="12" stroke-miterlimit="10"/>
<path d="M105.292 139.727C105.26 139.058 105.276 138.386 105.302 137.715C105.329 137.044 105.381 136.374 105.445 135.703C105.479 135.367 105.514 135.031 105.554 134.696C105.595 134.36 105.637 134.026 105.697 133.69C105.814 132.999 106.017 132.323 106.3 131.678C106.584 132.323 106.786 132.999 106.904 133.69C106.964 134.026 107.008 134.361 107.046 134.696C107.085 135.03 107.122 135.367 107.156 135.703C107.219 136.374 107.271 137.044 107.298 137.715C107.325 138.386 107.34 139.058 107.308 139.727H105.292Z" fill="#592D3D"/>
<path d="M95.8743 135.303C95.9112 133.785 97.9272 133.142 98.9352 134.106C99.0991 134.266 99.2283 134.455 99.3157 134.663C99.403 134.87 99.4467 135.092 99.4443 135.316C99.4419 135.54 99.3934 135.761 99.3016 135.967C99.2098 136.173 99.0764 136.359 98.9092 136.516C98.742 136.673 98.5441 136.796 98.3269 136.88C98.1097 136.963 97.8775 137.005 97.6434 137.003C97.4093 137 97.178 136.954 96.9627 136.866C96.7473 136.778 96.5522 136.651 96.3884 136.491C96.2248 136.335 96.0951 136.15 96.0069 135.946C95.9186 135.742 95.8736 135.523 95.8743 135.303Z" fill="#592D3D"/>
<path d="M68.5626 135.254C68.5273 133.946 70.0393 133.303 71.0473 133.785C72.3913 134.267 72.3913 136.033 71.0473 136.836C70.3753 137.158 69.7033 136.836 69.0733 136.438C68.9109 136.283 68.7821 136.098 68.6945 135.895C68.6069 135.692 68.562 135.474 68.5626 135.254Z" fill="#592D3D"/>
<path d="M84 133.587C84.1202 133.89 84.2048 134.205 84.252 134.525C84.302 134.836 84.3295 135.149 84.3344 135.463L84.3848 137.341C84.3999 137.966 84.42 138.592 84.4268 139.218L84.4553 141.093C84.494 143.593 84.4923 146.097 84.5024 148.599C84.5124 151.101 84.5326 153.604 84.5024 156.106C84.4872 157.357 84.452 158.608 84.4133 159.859C84.3965 160.484 84.3646 161.11 84.3008 161.735C84.2436 162.366 84.1443 162.994 84.0034 163.613C83.8625 162.994 83.7632 162.366 83.706 161.735C83.6422 161.11 83.6103 160.484 83.5935 159.859C83.5548 158.608 83.5196 157.357 83.5044 156.106C83.4708 153.604 83.5044 151.101 83.5044 148.599C83.5044 146.097 83.5044 143.596 83.5347 141.094L83.5632 139.215L83.6187 137.339L83.6741 135.463C83.6803 135.149 83.7084 134.836 83.7581 134.525C83.8021 134.205 83.8833 133.891 84 133.587Z" fill="#6B3D34"/>
<path d="M71.437 141.815C71.6862 141.702 71.95 141.621 72.2216 141.574C72.481 141.528 72.7439 141.501 73.0078 141.494L74.5786 141.441L77.7202 141.375C79.8135 141.345 81.9051 141.337 84.0001 141.332C86.095 141.327 88.1883 141.306 90.2816 141.332C91.3282 141.346 92.3749 141.38 93.4232 141.417C93.9457 141.435 94.4698 141.465 94.9923 141.525C95.5228 141.581 96.048 141.676 96.5631 141.81C96.0483 141.945 95.523 142.04 94.9923 142.095C94.4698 142.156 93.9457 142.186 93.4232 142.202C92.3749 142.239 91.3282 142.271 90.2816 142.286C88.1883 142.316 86.095 142.286 84.0001 142.286C81.9051 142.286 79.8118 142.286 77.7169 142.262C76.6702 142.252 75.6236 142.22 74.5786 142.181L73.0078 142.127C72.7445 142.12 72.4821 142.093 72.2233 142.046C71.9516 142.003 71.6872 141.925 71.437 141.815Z" fill="#6B3D34"/>
<path d="M74.325 146.855C74.5234 146.765 74.7354 146.704 74.9533 146.677C75.1547 146.65 75.3584 146.641 75.5614 146.653C75.9629 146.669 76.3645 146.678 76.766 146.686C77.569 146.704 78.3721 146.71 79.1751 146.714C80.793 146.714 82.3822 146.726 84.0068 146.68C85.6314 146.633 87.2425 146.611 88.8586 146.617C89.6667 146.617 90.4748 146.638 91.2812 146.656C91.6872 146.661 92.0926 146.686 92.4958 146.731C92.9103 146.775 93.3194 146.857 93.7172 146.977C93.3287 147.123 92.9256 147.231 92.5143 147.298C92.1138 147.367 91.7093 147.413 91.303 147.436C90.4933 147.493 89.6835 147.541 88.8754 147.568C87.2559 147.626 85.6381 147.619 84.0236 147.64C83.2155 147.64 82.4091 147.676 81.591 147.656C80.7728 147.637 79.963 147.636 79.1516 147.607C78.3402 147.578 77.5254 147.513 76.7156 147.433C76.309 147.39 75.9058 147.342 75.501 147.289C75.2965 147.265 75.0954 147.219 74.9012 147.154C74.6927 147.086 74.4978 146.985 74.325 146.855Z" fill="#6B3D34"/>
<path d="M73.7402 152.555C73.9395 152.443 74.1561 152.362 74.382 152.314C74.5926 152.267 74.8076 152.241 75.0238 152.235L76.3056 152.184C77.1607 152.155 78.0175 152.131 78.8726 152.118C80.5829 152.094 82.2931 152.094 84 152.094C85.7069 152.094 87.4205 152.067 89.1307 152.094C89.9858 152.108 90.841 152.142 91.6961 152.179C92.125 152.193 92.5529 152.228 92.9779 152.285C93.4156 152.343 93.8465 152.44 94.2648 152.576C93.8479 152.709 93.4187 152.804 92.983 152.86C92.5575 152.918 92.129 152.954 91.6994 152.968C90.8443 153.005 89.9892 153.038 89.1341 153.053C87.4238 153.085 85.7119 153.062 84.0017 153.053C82.2914 153.043 80.5812 153.043 78.871 153.013C78.0158 152.997 77.159 152.968 76.3039 152.934L75.0221 152.875C74.8059 152.868 74.5909 152.841 74.3803 152.794C74.155 152.748 73.9389 152.667 73.7402 152.555Z" fill="#6B3D34"/>
<path d="M92.0388 136.191L84.961 130.671L97.4988 121.871H70.5012L83.0391 130.671L75.9612 136.191L69.6394 127.116V139.721H98.9151V126.32L92.0388 136.191Z" fill="#6B3D34"/>
<path d="M103.599 121.765L96.4203 121.781C96.3832 122.507 96.303 123.229 96.1801 123.946C96.1011 124.29 96.0035 124.63 95.8878 124.964C95.4947 126.007 92.9881 126.892 92.2775 127.651C92.042 127.904 91.7895 128.142 91.5215 128.363C87.2929 131.286 80.5729 131.446 76.4888 128.27C76.0484 127.902 75.6482 127.493 75.2943 127.047C74.5837 126.155 72.5391 125.186 72.2535 124.006C72.1726 123.656 72.112 123.303 72.0721 122.947C72.0315 122.584 72.0114 122.22 72.0116 121.855L64.4163 121.765C63.8249 121.765 63.2577 121.99 62.8394 122.389C62.421 122.789 62.1857 123.331 62.1853 123.896V169.619C62.1857 170.185 62.421 170.727 62.8394 171.126C63.2577 171.526 63.8249 171.751 64.4163 171.751H104.557C105.148 171.751 105.715 171.526 106.133 171.126C106.551 170.727 106.786 170.185 106.786 169.619V124.952C106.786 122.995 105.798 121.765 103.599 121.765Z" fill="white"/>
<path d="M102.957 121.765C113.632 121.765 117.829 128.734 116.212 165.45C113.064 166.526 106.82 166.187 106.82 166.187L102.957 121.765Z" fill="white"/>
<path d="M75.7781 137.383L83.9177 133.514L92.0791 137.383L85.853 130.473L78.4795 130.607L75.7781 137.383Z" fill="#E2E2E2"/>
<path d="M106.786 133.513C106.786 133.513 102.957 147.091 103.542 171.095L109.121 166.117L109.722 144.02C108.778 132.42 106.786 133.513 106.786 133.513Z" fill="#E2E2E2"/>
<path d="M65.3521 121.765C54.9731 121.765 50.4203 130.831 51.7861 161.191C55.5527 162.782 61.226 162.087 61.226 162.087L65.3521 121.765Z" fill="white"/>
<path d="M51.5659 153.779C51.595 155.969 51.6628 158.297 51.7692 160.762C54.3346 160.879 59.1091 160.903 61.3637 160.762L62.0659 153.886C60.2566 153.684 54.3749 153.618 51.5659 153.779Z" fill="#E2E2E2"/>
<path d="M62.1803 133.513L62.0963 162.052L59.8535 162.196C59.3545 138.258 62.1803 133.513 62.1803 133.513Z" fill="#E2E2E2"/>
<path d="M102.957 121.765C114.284 121.765 116.137 130.804 116.212 143.251V165.45C116.212 165.45 107.812 166.338 106.82 166.187L106.803 143.363" stroke="#592D3D" stroke-width="12" stroke-miterlimit="10" stroke-linecap="square"/>
<path d="M65.352 121.765C61.0294 121.765 58.0406 123.069 55.9927 125.369C52.7251 129.042 51.8549 135.253 51.7927 142.758V162.636C53.8188 163.169 62.1012 162.052 62.1012 162.052L62.1835 143.004" stroke="#592D3D" stroke-width="12" stroke-miterlimit="10" stroke-linecap="square"/>
<path d="M62.5969 162.411C62.2895 162.831 50.2036 162.72 50.0524 162.411C49.9012 162.103 49.6845 156.389 50.0524 155.827C50.3548 155.364 62.1669 155.462 62.5969 155.827C63.027 156.191 62.9044 161.992 62.5969 162.411Z" fill="white" stroke="#592D3D" stroke-width="12" stroke-miterlimit="10" stroke-linecap="square"/>
<path d="M64.4162 171.751H84C65.6561 171.751 67.0471 134.628 62.1785 134.628V169.619C62.1787 169.9 62.2368 170.177 62.3494 170.436C62.4621 170.696 62.627 170.931 62.8349 171.129C63.0428 171.327 63.2894 171.483 63.5608 171.59C63.8321 171.697 64.1228 171.751 64.4162 171.751Z" fill="#E2E2E2"/>
<path d="M61.1772 138.168C61.1452 137.578 61.1587 136.987 61.1872 136.401C61.2158 135.815 61.2662 135.222 61.33 134.635C61.3636 134.341 61.3989 134.045 61.4392 133.75C61.4796 133.454 61.5216 133.16 61.582 132.866C61.701 132.255 61.9037 131.661 62.1852 131.1C62.4666 131.661 62.6694 132.255 62.7883 132.866C62.8488 133.16 62.8924 133.456 62.9311 133.75C62.9697 134.044 63.0067 134.341 63.0403 134.635C63.1052 135.226 63.1534 135.814 63.1848 136.401C63.2116 136.991 63.2251 137.582 63.1848 138.168H61.1772Z" fill="#592D3D"/>
<path d="M106.786 139.631V140.916C106.83 146.376 106.83 151.998 106.786 157.42C106.786 157.881 106.786 158.338 106.786 158.79V169.616C106.786 170.181 106.551 170.723 106.133 171.123C105.715 171.523 105.148 171.747 104.557 171.747H64.4164C63.825 171.747 63.2578 171.523 62.8394 171.123C62.421 170.724 62.1858 170.182 62.1853 169.616V159.048C62.1417 153.45 62.1417 147.828 62.1853 142.136V138.168" stroke="#592D3D" stroke-width="12" stroke-miterlimit="10"/>
<path d="M117.167 155.826C117.54 156.189 117.434 161.992 117.167 162.411C116.9 162.831 106.415 162.72 106.285 162.411C106.156 162.103 105.966 156.389 106.285 155.826C106.331 155.746 106.668 155.684 107.201 155.637" fill="white"/>
<path d="M117.167 155.826C117.54 156.189 117.434 161.992 117.167 162.411C116.9 162.831 106.415 162.72 106.285 162.411C106.156 162.103 105.966 156.389 106.285 155.826C106.331 155.746 106.668 155.684 107.201 155.637" stroke="#592D3D" stroke-width="12" stroke-miterlimit="10" stroke-linecap="square"/>
<path d="M114.059 155.515C114.156 155.393 114.262 155.277 114.374 155.168C114.466 155.08 114.566 155.001 114.673 154.932C114.77 154.871 114.872 154.817 114.978 154.771C115.08 154.725 115.183 154.685 115.285 154.644C115.491 154.565 115.704 154.501 115.922 154.455C116.032 154.432 116.145 154.415 116.258 154.405C116.318 154.405 116.38 154.405 116.454 154.405C116.496 154.405 116.532 154.405 116.592 154.405C116.612 154.405 116.666 154.405 116.711 154.416H116.77L116.852 154.434L116.894 154.444L116.928 154.453L117.024 154.487C117.149 154.539 117.263 154.614 117.36 154.707L118.065 155.396L116.612 156.758L115.92 156.056C116.011 156.147 116.12 156.219 116.241 156.268C116.271 156.281 116.301 156.291 116.332 156.3H116.36L116.392 156.308C116.413 156.315 116.434 156.32 116.456 156.323H116.488C116.505 156.323 116.532 156.323 116.525 156.323C116.518 156.323 116.513 156.323 116.5 156.323H116.374C116.278 156.323 116.174 156.323 116.068 156.323C115.846 156.31 115.626 156.282 115.409 156.238C115.297 156.214 115.184 156.189 115.073 156.159C114.958 156.13 114.846 156.091 114.737 156.043C114.612 155.987 114.495 155.915 114.388 155.831C114.26 155.745 114.149 155.638 114.059 155.515Z" fill="#592D3D"/>
<path d="M99.5416 122.645L86.9971 131.448L94.0766 136.97L104.059 122.637L99.5416 122.645Z" fill="#E2E2E2"/>
<path d="M105.778 139.631C105.746 138.96 105.761 138.288 105.788 137.619C105.815 136.949 105.867 136.276 105.933 135.606C105.966 135.271 106 134.935 106.04 134.599C106.08 134.264 106.122 133.928 106.185 133.592C106.301 132.901 106.503 132.225 106.786 131.58C107.071 132.225 107.273 132.901 107.389 133.592C107.45 133.928 107.495 134.264 107.532 134.599C107.569 134.935 107.608 135.271 107.641 135.606C107.707 136.276 107.757 136.947 107.784 137.619C107.811 138.29 107.828 138.96 107.794 139.631H105.778Z" fill="#592D3D"/>
<path d="M64.4163 121.782L103.599 121.765" stroke="#592D3D" stroke-width="12" stroke-miterlimit="10"/>
<path d="M88.9376 134.195L85.1828 130.607L81.4297 134.195L83.2743 135.958L81.6414 153.083L85.1257 155.68L88.7242 153.083L87.093 135.958L88.9376 134.195Z" fill="#E2E2E2"/>
<path d="M84.0068 130.607V171.751" stroke="#592D3D" stroke-width="6" stroke-miterlimit="10" stroke-linecap="square"/>
<path d="M84.0068 130.607L87.7616 133.07L84.0068 136.66L80.2537 133.07L84.0068 130.607Z" fill="#D67070"/>
<path d="M70.4963 121.868C70.4963 121.868 77.7656 128.186 83.0391 130.671C80.4721 134.72 75.9613 136.194 75.9613 136.194L65.9771 121.863L70.4963 121.868Z" fill="white" stroke="#592D3D" stroke-width="12" stroke-miterlimit="10"/>
<path d="M97.5038 121.868C97.5038 121.868 90.888 128.485 84.9609 130.671C86.6409 133.928 92.0388 136.191 92.0388 136.191L102.023 121.86L97.5038 121.868Z" fill="white" stroke="#592D3D" stroke-width="12" stroke-miterlimit="10"/>
<path d="M92.6604 155.745C92.5029 155.658 92.3332 155.593 92.1564 155.552V150.636C92.3369 150.595 92.5101 150.529 92.6705 150.44C92.9115 150.308 93.1199 150.128 93.2816 149.912C93.4432 149.696 93.5542 149.45 93.6071 149.189C93.6599 148.929 93.6534 148.66 93.5878 148.402C93.5223 148.144 93.3993 147.903 93.2273 147.695C93.0553 147.486 92.8383 147.316 92.5911 147.195C92.3439 147.074 92.0724 147.006 91.795 146.994C91.5176 146.983 91.2409 147.029 90.9838 147.129C90.7266 147.229 90.4951 147.381 90.3051 147.575L85.848 145.119C85.9272 144.865 85.9484 144.598 85.9101 144.336C85.8718 144.074 85.7749 143.823 85.626 143.6C85.4771 143.377 85.2796 143.187 85.0471 143.043C84.8146 142.899 84.5524 142.805 84.2785 142.767C84.0045 142.729 83.7251 142.747 83.4594 142.821C83.1936 142.896 82.9476 143.024 82.7382 143.197C82.5288 143.37 82.3609 143.584 82.2458 143.825C82.1308 144.066 82.0713 144.327 82.0714 144.592C82.0717 144.769 82.0983 144.946 82.1503 145.116L77.6983 147.573C77.5704 147.444 77.4239 147.333 77.2632 147.244C77.0434 147.116 76.7991 147.031 76.5447 146.995C76.2903 146.959 76.0308 146.972 75.7816 147.033C75.5324 147.094 75.2985 147.202 75.0936 147.35C74.8887 147.499 74.7169 147.685 74.5884 147.898C74.4598 148.111 74.3771 148.347 74.3451 148.591C74.3131 148.835 74.3324 149.082 74.4019 149.319C74.4714 149.556 74.5897 149.777 74.7499 149.97C74.9101 150.162 75.1089 150.322 75.3346 150.44C75.495 150.529 75.6682 150.595 75.8487 150.636V155.55C75.6721 155.592 75.5024 155.658 75.3447 155.745C75.1189 155.863 74.9202 156.022 74.76 156.215C74.5998 156.407 74.4815 156.628 74.412 156.865C74.3425 157.102 74.3232 157.35 74.3552 157.594C74.3872 157.838 74.4699 158.073 74.5984 158.286C74.727 158.499 74.8988 158.685 75.1037 158.834C75.3086 158.983 75.5425 159.091 75.7917 159.152C76.0409 159.213 76.3004 159.225 76.5548 159.189C76.8092 159.153 77.0535 159.068 77.2733 158.941C77.4322 158.853 77.5776 158.745 77.7051 158.619L82.152 161.072C82.0991 161.241 82.0725 161.417 82.0731 161.594C82.0731 162.084 82.2766 162.553 82.6389 162.9C83.0013 163.246 83.4927 163.441 84.0051 163.441C84.5175 163.441 85.0089 163.246 85.3712 162.9C85.7335 162.553 85.9371 162.084 85.9371 161.594C85.9368 161.396 85.9039 161.2 85.8396 161.012L90.2631 158.571C90.4 158.718 90.5611 158.843 90.7402 158.941C91.1827 159.172 91.7022 159.228 92.1877 159.098C92.6732 158.968 93.0861 158.661 93.338 158.244C93.59 157.826 93.6611 157.331 93.536 156.864C93.4109 156.397 93.0997 155.995 92.6688 155.745H92.6604ZM78.1788 156.912C78.1354 156.743 78.067 156.581 77.9755 156.43C77.8843 156.279 77.7712 156.141 77.6395 156.019L83.4658 146.373C83.6406 146.421 83.8215 146.445 84.0034 146.445C84.1859 146.446 84.3675 146.421 84.5427 146.372L90.3672 156.018C90.0997 156.261 89.9113 156.574 89.8246 156.917L78.1788 156.912ZM89.8464 148.342C89.7752 148.58 89.7548 148.829 89.7864 149.074C89.8181 149.32 89.9011 149.557 90.0307 149.771C90.1602 149.985 90.3335 150.172 90.5403 150.32C90.747 150.469 90.983 150.576 91.2341 150.636V155.558L91.1602 155.576L85.3339 145.928L85.3843 145.88L89.8464 148.342ZM82.6123 145.879L82.6678 145.93L76.8415 155.578L76.7659 155.558V150.631C77.0172 150.571 77.2533 150.464 77.4601 150.315C77.667 150.167 77.8403 149.98 77.9697 149.765C78.0991 149.551 78.1819 149.314 78.2133 149.068C78.2446 148.823 78.2237 148.574 78.1519 148.336L82.6123 145.879ZM85.4263 160.356C85.2483 160.169 85.0323 160.02 84.7916 159.917C84.5509 159.813 84.2907 159.758 84.0269 159.755C83.763 159.751 83.5013 159.8 83.2577 159.897C83.0142 159.994 82.7939 160.137 82.6107 160.319L78.157 157.86L78.1771 157.789H89.8229C89.833 157.829 89.8447 157.871 89.8582 157.91L85.4263 160.356Z" fill="black" stroke="white" stroke-width="16"/>
<path d="M92.6604 155.745C92.5029 155.658 92.3332 155.593 92.1564 155.552V150.636C92.3369 150.595 92.5101 150.529 92.6705 150.44C92.9115 150.308 93.1199 150.128 93.2816 149.912C93.4432 149.696 93.5542 149.45 93.6071 149.189C93.6599 148.929 93.6534 148.66 93.5878 148.402C93.5223 148.144 93.3993 147.903 93.2273 147.695C93.0553 147.486 92.8383 147.316 92.5911 147.195C92.3439 147.074 92.0724 147.006 91.795 146.994C91.5176 146.983 91.2409 147.029 90.9838 147.129C90.7266 147.229 90.4951 147.381 90.3051 147.575L85.848 145.119C85.9272 144.865 85.9484 144.598 85.9101 144.336C85.8718 144.074 85.7749 143.823 85.626 143.6C85.4771 143.377 85.2796 143.187 85.0471 143.043C84.8146 142.899 84.5524 142.805 84.2785 142.767C84.0045 142.729 83.7251 142.747 83.4594 142.821C83.1936 142.896 82.9476 143.024 82.7382 143.197C82.5288 143.37 82.3609 143.584 82.2458 143.825C82.1308 144.066 82.0713 144.327 82.0714 144.592C82.0717 144.769 82.0983 144.946 82.1503 145.116L77.6983 147.573C77.5704 147.444 77.4239 147.333 77.2632 147.244C77.0434 147.116 76.7991 147.031 76.5447 146.995C76.2903 146.959 76.0308 146.972 75.7816 147.033C75.5324 147.094 75.2985 147.202 75.0936 147.35C74.8887 147.499 74.7169 147.685 74.5884 147.898C74.4598 148.111 74.3771 148.347 74.3451 148.591C74.3131 148.835 74.3324 149.082 74.4019 149.319C74.4714 149.556 74.5897 149.777 74.7499 149.97C74.9101 150.162 75.1089 150.322 75.3346 150.44C75.495 150.529 75.6682 150.595 75.8487 150.636V155.55C75.6721 155.592 75.5024 155.658 75.3447 155.745C75.1189 155.863 74.9202 156.022 74.76 156.215C74.5998 156.407 74.4815 156.628 74.412 156.865C74.3425 157.102 74.3232 157.35 74.3552 157.594C74.3872 157.838 74.4699 158.073 74.5984 158.286C74.727 158.499 74.8988 158.685 75.1037 158.834C75.3086 158.983 75.5425 159.091 75.7917 159.152C76.0409 159.213 76.3004 159.225 76.5548 159.189C76.8092 159.153 77.0535 159.068 77.2733 158.941C77.4322 158.853 77.5776 158.745 77.7051 158.619L82.152 161.072C82.0991 161.241 82.0725 161.417 82.0731 161.594C82.0731 162.084 82.2766 162.553 82.6389 162.9C83.0013 163.246 83.4927 163.441 84.0051 163.441C84.5175 163.441 85.0089 163.246 85.3712 162.9C85.7335 162.553 85.9371 162.084 85.9371 161.594C85.9368 161.396 85.9039 161.2 85.8396 161.012L90.2631 158.571C90.4 158.718 90.5611 158.843 90.7402 158.941C91.1827 159.172 91.7022 159.228 92.1877 159.098C92.6732 158.968 93.0861 158.661 93.338 158.244C93.59 157.826 93.6611 157.331 93.536 156.864C93.4109 156.397 93.0997 155.995 92.6688 155.745H92.6604ZM78.1788 156.912C78.1354 156.743 78.067 156.581 77.9755 156.43C77.8843 156.279 77.7712 156.141 77.6395 156.019L83.4658 146.373C83.6406 146.421 83.8215 146.445 84.0034 146.445C84.1859 146.446 84.3675 146.421 84.5427 146.372L90.3672 156.018C90.0997 156.261 89.9113 156.574 89.8246 156.917L78.1788 156.912ZM89.8464 148.342C89.7752 148.58 89.7548 148.829 89.7864 149.074C89.8181 149.32 89.9011 149.557 90.0307 149.771C90.1602 149.985 90.3335 150.172 90.5403 150.32C90.747 150.469 90.983 150.576 91.2341 150.636V155.558L91.1602 155.576L85.3339 145.928L85.3843 145.88L89.8464 148.342ZM82.6123 145.879L82.6678 145.93L76.8415 155.578L76.7659 155.558V150.631C77.0172 150.571 77.2533 150.464 77.4601 150.315C77.667 150.167 77.8403 149.98 77.9697 149.765C78.0991 149.551 78.1819 149.314 78.2133 149.068C78.2446 148.823 78.2237 148.574 78.1519 148.336L82.6123 145.879ZM85.4263 160.356C85.2483 160.169 85.0323 160.02 84.7916 159.917C84.5509 159.813 84.2907 159.758 84.0269 159.755C83.763 159.751 83.5013 159.8 83.2577 159.897C83.0142 159.994 82.7939 160.137 82.6107 160.319L78.157 157.86L78.1771 157.789H89.8229C89.833 157.829 89.8447 157.871 89.8582 157.91L85.4263 160.356Z" fill="#E535AB"/>
<path d="M80.4653 151.959L83.9497 154.556L87.5482 151.959L85.8682 134.328H82.1453L80.4653 151.959Z" fill="#D67070"/>
<path d="M80.2537 133.07L82.0983 134.834L80.4653 151.959L83.9497 154.556L87.5482 151.959L85.9169 134.834L87.7616 133.07" stroke="#592D3D" stroke-width="8" stroke-miterlimit="10"/>
<path d="M107.107 154.677C107.599 154.61 108.095 154.585 108.592 154.601C109.079 154.612 109.563 154.649 110.047 154.705C110.287 154.734 110.529 154.765 110.769 154.803C111.012 154.837 111.252 154.883 111.49 154.94C111.997 155.058 112.48 155.257 112.918 155.529C112.474 155.786 111.991 155.975 111.486 156.091C111.25 156.149 111.013 156.193 110.776 156.23C110.539 156.267 110.304 156.305 110.069 156.34C109.598 156.408 109.129 156.466 108.666 156.501C108.202 156.536 107.738 156.581 107.295 156.588L106.287 156.604L106.119 154.816L107.107 154.677Z" fill="#592D3D"/>
<path d="M82.4695 134.297L82.4813 134.305C82.4915 134.311 82.5011 134.317 82.5098 134.325L82.5737 134.371C82.6157 134.405 82.661 134.439 82.7047 134.476C82.7937 134.548 82.8878 134.625 82.9903 134.699C83.0928 134.773 83.2037 134.843 83.3263 134.927C83.4864 135.042 83.6385 135.167 83.7816 135.301C83.6618 135.488 83.4748 135.627 83.2557 135.691C83.0536 135.745 82.8423 135.76 82.6341 135.735C82.4227 135.715 82.2164 135.661 82.0243 135.574C81.9266 135.529 81.8337 135.476 81.7471 135.413C81.702 135.382 81.6588 135.348 81.6177 135.312C81.5976 135.295 81.5757 135.275 81.5556 135.254L81.522 135.221L81.48 135.174L82.4695 134.297Z" fill="#592D3D"/>
<path d="M49.8104 91.9648V89.8881C49.548 88.5285 49.6604 87.1271 50.1363 85.8216C50.2931 85.3957 50.4905 84.9844 50.726 84.5929C51.2888 83.1941 52.8008 82.0698 54.3128 81.588C56.6648 80.9456 59.5208 81.2668 61.3688 83.0335C63.7208 85.4425 63.3848 88.9759 63.4604 91.9664" stroke="#592D3D" stroke-width="12" stroke-miterlimit="10" stroke-linecap="round"/>
<path d="M104.716 92.0273C104.323 87.752 104.995 81.8096 110.786 81.2394C111.24 81.2001 111.696 81.2001 112.15 81.2394C113.517 81.3529 114.823 81.8303 115.92 82.6174C118.944 85.0265 118.272 88.8811 118.264 92.0338" stroke="#592D3D" stroke-width="12" stroke-miterlimit="10" stroke-linecap="round"/>
<path d="M93.8365 103.18C93.2267 103.18 92.9377 102.969 91.2191 101.447C89.9607 100.334 89.0972 99.783 88.0422 99.6063C86.7267 99.3863 85.3827 99.465 83.9497 100.84C82.5167 99.465 81.1743 99.3943 79.8572 99.6063C78.8022 99.783 77.9387 100.334 76.6803 101.447C74.9617 102.969 74.6727 103.18 74.0629 103.18C74.0018 103.18 73.9421 103.197 73.8914 103.23C73.8406 103.262 73.801 103.308 73.7777 103.362C73.7543 103.416 73.7482 103.476 73.7601 103.533C73.772 103.59 73.8013 103.643 73.8445 103.684C76.7845 106.495 80.1529 107.902 83.9497 107.905C87.7465 107.908 91.1149 106.501 94.0549 103.684C94.0981 103.643 94.1274 103.59 94.1393 103.533C94.1512 103.476 94.1451 103.416 94.1218 103.362C94.0984 103.308 94.0588 103.262 94.0081 103.23C93.9573 103.197 93.8976 103.18 93.8365 103.18Z" fill="#D69AC7"/>
<path d="M94.0079 103.726L93.9155 103.371C82.0614 105.96 74.0629 103.456 74.0629 103.456L73.7656 103.406C73.7525 103.455 73.753 103.506 73.7668 103.555C73.7806 103.604 73.8074 103.648 73.8445 103.684C76.7845 106.495 80.1529 107.902 83.9497 107.905C87.7219 107.905 91.0746 106.512 94.0079 103.726Z" fill="#C683B4"/>
<path d="M80.519 104.457C82.7786 104.306 85.003 104.225 87.2206 103.975C88.3277 103.853 89.4298 103.695 90.5251 103.515C91.6205 103.336 92.7091 103.128 93.8028 102.905L94.0279 103.845C92.9225 104.095 91.807 104.299 90.6814 104.457C89.5558 104.614 88.4268 104.724 87.2945 104.787C86.1605 104.847 85.0265 104.874 83.8925 104.831C82.7594 104.791 81.6314 104.666 80.519 104.457Z" fill="#592D3D"/>
<path d="M74.2207 102.998C74.5046 103.067 74.8204 103.159 75.1245 103.236C75.4286 103.313 75.7377 103.409 76.0468 103.498C76.3559 103.586 76.6651 103.674 76.9742 103.782C77.2956 103.89 77.6033 104.032 77.8915 104.206C77.5613 104.299 77.2192 104.348 76.8751 104.351C76.5391 104.351 76.2115 104.325 75.8788 104.299C75.5462 104.273 75.2186 104.224 74.891 104.163C74.5565 104.104 74.2274 104.021 73.9065 103.914L74.2207 102.998Z" fill="#592D3D"/>
<path d="M93.8364 103.18C93.2266 103.18 92.9376 102.969 91.2189 101.447C89.9606 100.334 89.1139 99.6337 88.0421 99.6064C86.1588 99.5582 84.8249 100.589 83.8824 100.589C82.9399 100.589 82.1268 99.3799 79.8504 99.6064C78.7853 99.7124 77.9318 100.334 76.6735 101.447C74.9549 102.969 74.6659 103.18 74.0561 103.18C73.995 103.18 73.9353 103.197 73.8845 103.23C73.8338 103.262 73.7942 103.308 73.7708 103.362C73.7475 103.416 73.7413 103.476 73.7532 103.533C73.7651 103.59 73.7945 103.643 73.8377 103.684C76.7777 106.495 80.1461 107.902 83.9429 107.905C87.7397 107.908 91.1081 106.501 94.0481 103.684C94.0909 103.643 94.1201 103.591 94.1322 103.534C94.1444 103.478 94.1388 103.419 94.1163 103.365C94.0937 103.312 94.0552 103.265 94.0054 103.232C93.9557 103.199 93.8969 103.181 93.8364 103.18Z" stroke="#592D3D" stroke-width="8" stroke-miterlimit="10"/>
<path d="M88.0421 100.617C87.3384 100.674 86.6478 100.833 85.9942 101.089C85.6682 101.212 85.344 101.346 85.0114 101.477C84.6705 101.627 84.306 101.721 83.9328 101.757C83.7333 101.76 83.5351 101.725 83.3498 101.654C83.1766 101.59 83.0082 101.515 82.8458 101.429C82.5419 101.262 82.229 101.11 81.9084 100.975C81.5877 100.847 81.253 100.753 80.9105 100.697C80.5611 100.642 80.2077 100.616 79.8538 100.617C80.2075 100.549 80.5686 100.523 80.929 100.539C81.294 100.561 81.6544 100.628 82.0008 100.74C82.341 100.857 82.6722 100.997 82.992 101.158C83.3062 101.309 83.6153 101.452 83.9194 101.437C84.2552 101.404 84.5837 101.322 84.8938 101.195C85.2298 101.081 85.5658 100.952 85.9018 100.853C86.5891 100.627 87.3192 100.547 88.0421 100.617Z" fill="white"/>
<path d="M79.4002 104.773C79.9412 104.773 79.9429 103.97 79.4002 103.97C78.8576 103.97 78.8593 104.773 79.4002 104.773Z" fill="#592D3D"/>
<path d="M71.437 48.238C73.3288 47.1857 75.3572 46.3757 77.4699 45.829C79.5983 45.2725 81.7935 44.9836 84.0001 44.9697C86.2127 44.9563 88.4169 45.2307 90.5521 45.7856C92.6687 46.3283 94.6946 47.1539 96.5698 48.238C94.5201 47.6289 92.4336 47.1393 90.3219 46.7717C88.2378 46.4192 86.1249 46.2461 84.0084 46.2546C81.8929 46.2695 79.7825 46.4565 77.7001 46.8135C75.5878 47.1837 73.4973 47.6592 71.437 48.238Z" fill="#592D3D"/>
<path d="M71.437 52.7271C73.3288 51.6747 75.3572 50.8647 77.4699 50.318C79.5988 49.765 81.7939 49.4788 84.0001 49.4668C86.212 49.4491 88.4163 49.7192 90.5521 50.2698C92.6687 50.8125 94.6946 51.6381 96.5698 52.7222C94.5199 52.1139 92.4335 51.6242 90.3219 51.2559C88.2401 50.9032 86.1294 50.7296 84.0152 50.7371C81.8996 50.7521 79.7892 50.939 77.7068 51.2961C75.5923 51.669 73.4996 52.1466 71.437 52.7271Z" fill="#592D3D"/>
<path d="M96.5631 52.7479C94.5011 53.1725 92.414 53.4771 90.3135 53.6601C88.2157 53.8529 86.1112 53.9541 84 53.9637C81.8916 53.9637 79.7832 53.8882 77.6832 53.7003C75.5801 53.5228 73.4924 53.2056 71.4353 52.7511C73.5504 52.6885 75.6353 52.6965 77.7336 52.6917L84 52.6788L90.2647 52.658C92.3547 52.658 94.4496 52.6564 96.5631 52.7479Z" fill="#6B3D34"/>
<path d="M96.5631 48.2573C94.496 48.6499 92.4071 48.9298 90.3068 49.0957C88.2101 49.2702 86.1085 49.3617 84.0017 49.3703C81.8967 49.3783 79.7917 49.3029 77.6917 49.1326C75.589 48.9715 73.4997 48.6791 71.437 48.2573C73.5488 48.1626 75.637 48.1449 77.732 48.1224L84.0001 48.0855C86.0866 48.0855 88.1749 48.0758 90.2681 48.0855C92.3614 48.0951 94.453 48.1336 96.5631 48.2573Z" fill="#6B3D34"/>
<path d="M146.347 80.3031C130.511 79.3507 131.502 52.5472 122.138 57.7958L122.208 57.9066C122.027 59.3039 120.345 73.9865 126.592 93.8984C126.66 93.6977 126.728 93.4953 126.795 93.2929C127.131 94.1602 129.651 99.5726 139.531 97.0126C132.713 91.5166 134.244 84.9238 134.244 84.9238C134.244 84.9238 141.728 85.1357 146.347 80.3031Z" fill="white"/>
<path d="M146.347 80.3031C130.511 79.3507 131.502 52.5472 122.138 57.7958L122.208 57.9066C122.027 59.3039 120.345 73.9865 126.592 93.8984C126.66 93.6977 126.728 93.4953 126.795 93.2929C127.131 94.1602 129.651 99.5726 139.531 97.0126C132.713 91.5166 134.244 84.9238 134.244 84.9238C134.244 84.9238 141.728 85.1357 146.347 80.3031Z" stroke="#592D3D" stroke-width="12" stroke-miterlimit="10"/>
<path d="M128.814 80.3031C129.007 81.4531 129.093 82.6173 129.069 83.7818C129.043 84.9467 128.953 86.1094 128.8 87.2654C128.722 87.8436 128.631 88.4207 128.528 88.9967C128.419 89.5701 128.302 90.1434 128.165 90.7136C127.897 91.8553 127.561 92.9814 127.157 94.0863L125.882 93.6784C126.237 92.5975 126.576 91.5118 126.877 90.4149L127.099 89.591L127.304 88.7622L127.5 87.9319L127.68 87.0967C127.917 85.9821 128.1 84.8579 128.273 83.724C128.446 82.5901 128.609 81.453 128.814 80.3031Z" fill="#592D3D"/>
<path d="M122.783 57.5709C123.472 58.6095 124.097 59.6852 124.656 60.7927C124.796 61.0689 124.928 61.3484 125.063 61.6278L125.449 62.471L125.81 63.3254L126.146 64.1863C126.585 65.3374 126.957 66.5105 127.262 67.7003C127.564 68.8906 127.753 70.1043 127.828 71.3268C127.364 70.1849 126.939 69.0494 126.494 67.9236C126.049 66.7977 125.6 65.6831 125.09 64.5894L124.705 63.7719L124.303 62.9689L123.892 62.1659L123.463 61.3709C122.887 60.3125 122.272 59.283 121.637 58.2503L122.783 57.5709Z" fill="#592D3D"/>
<path d="M21.6536 80.3031C37.4892 79.3507 36.498 52.5472 45.8624 57.7958L45.7918 57.9066C45.9732 59.3039 47.6549 73.9865 41.4087 93.8984C41.3398 93.6977 41.2726 93.4953 41.2054 93.2929C40.8694 94.1602 38.3494 99.5726 28.4693 97.0126C35.2868 91.5166 33.7563 84.9238 33.7563 84.9238C33.7563 84.9238 26.2719 85.1357 21.6536 80.3031Z" fill="white"/>
<path d="M21.6536 80.3031C37.4892 79.3507 36.498 52.5472 45.8624 57.7958L45.7918 57.9066C45.9732 59.3039 47.6549 73.9865 41.4087 93.8984C41.3398 93.6977 41.2726 93.4953 41.2054 93.2929C40.8694 94.1602 38.3494 99.5726 28.4693 97.0126C35.2868 91.5166 33.7563 84.9238 33.7563 84.9238C33.7563 84.9238 26.2719 85.1357 21.6536 80.3031Z" stroke="#592D3D" stroke-width="12" stroke-miterlimit="10"/>
<path d="M39.186 80.3031C39.3909 81.453 39.5522 82.5901 39.7303 83.7208C39.9084 84.8515 40.0865 85.9773 40.3233 87.0935L40.5031 87.9287L40.6997 88.759L40.9046 89.5877L41.1264 90.4116C41.4271 91.5086 41.7648 92.5943 42.1209 93.6752L40.8458 94.0831C40.4427 92.9782 40.1062 91.8521 39.8378 90.7104C39.7017 90.1402 39.5841 89.5669 39.4749 88.9935C39.3657 88.4201 39.2817 87.8403 39.2028 87.2622C39.0503 86.1062 38.9606 84.9435 38.934 83.7786C38.9098 82.6153 38.9941 81.4521 39.186 80.3031Z" fill="#592D3D"/>
<path d="M46.368 58.2438C45.7329 59.2701 45.118 60.306 44.5418 61.3644L44.1084 62.1546L43.6968 62.9576L43.2952 63.7606L42.9105 64.5781C42.4065 65.6718 41.9462 66.788 41.506 67.9123C41.0659 69.0365 40.6358 70.1736 40.1721 71.3155C40.2471 70.093 40.4366 68.8793 40.7383 67.689C41.0432 66.4992 41.4156 65.3261 41.8538 64.175L42.1898 63.3141L42.5544 62.4758L42.9408 61.6326C43.0752 61.3531 43.2079 61.0737 43.3473 60.7974C43.9053 59.6901 44.5296 58.6144 45.2172 57.5757L46.368 58.2438Z" fill="#592D3D"/>
<path d="M33.3127 84.9365L33.0439 82.4327C33.0002 82.0055 32.9447 81.5783 32.9111 81.1478C32.8994 80.9294 32.8859 80.711 32.8927 80.4845C32.8915 80.254 32.9084 80.0237 32.9431 79.7955C33.2489 80.1489 33.5006 80.542 33.6907 80.9631C33.7864 81.1671 33.8687 81.3759 33.9443 81.5863C34.0199 81.7967 34.0922 82.0087 34.1611 82.2287C34.2299 82.4487 34.2887 82.6575 34.3459 82.8711C34.403 83.0847 34.4517 83.308 34.4954 83.528C34.5391 83.7481 34.5777 83.9697 34.6046 84.1945C34.6363 84.4257 34.6537 84.6584 34.6567 84.8916L33.3127 84.9365Z" fill="#592D3D"/>
<path d="M133.333 84.6989C133.348 84.3388 133.398 83.9808 133.481 83.6293C133.521 83.4574 133.57 83.2856 133.619 83.1154C133.668 82.9451 133.73 82.7765 133.787 82.6094C133.908 82.273 134.059 81.9469 134.237 81.6346C134.426 81.3094 134.68 81.0229 134.985 80.7914C135.028 81.1475 135.034 81.5069 135.003 81.8642C134.988 82.0248 134.973 82.1999 134.951 82.3621L134.904 82.8568L134.798 83.8365C134.761 84.1577 134.726 84.4933 134.677 84.7889L133.333 84.6989Z" fill="#592D3D"/>
<path d="M68.4248 76.2623H48.1573C47.2232 76.2623 46.2891 76.2495 45.355 76.2623H45.3147C44.4361 76.2623 43.5944 77.0011 43.6347 77.8684C43.642 78.2921 43.8214 78.6966 44.1349 78.9962C44.4484 79.2959 44.8714 79.4674 45.3147 79.4744H65.5822C66.5146 79.4744 67.4504 79.4873 68.3844 79.4744H68.4248C69.3034 79.4744 70.1451 78.7356 70.1048 77.8684C70.097 77.4447 69.9175 77.0405 69.6041 76.7409C69.2907 76.4413 68.8679 76.2697 68.4248 76.2623Z" fill="#592D3D"/>
<path d="M122.022 76.2623H101.754C100.82 76.2623 99.886 76.2495 98.9519 76.2623H98.9116C98.033 76.2623 97.1913 77.0011 97.2316 77.8684C97.239 78.2921 97.4183 78.6966 97.7318 78.9962C98.0453 79.2959 98.4683 79.4674 98.9116 79.4744H119.179C120.113 79.4744 121.047 79.4873 121.981 79.4744H122.022C122.9 79.4744 123.742 78.7356 123.702 77.8684C123.694 77.4447 123.514 77.0405 123.201 76.7409C122.888 76.4413 122.465 76.2697 122.022 76.2623Z" fill="#592D3D"/>
</g>
</svg>
