<svg width="48" height="48" viewBox="0 0 48 48" fill="none" xmlns="http://www.w3.org/2000/svg">
<path d="M24 18.0759C20.7316 18.0759 18.0824 20.7225 18.0824 23.9868C18.0824 27.2628 20.7433 29.924 24 29.924L35.7973 29.9241C35.9092 29.9241 36 30.0147 36 30.1266V35.7975C36 35.9093 35.9092 36 35.7973 36L12.2027 36C12.0908 36 12 35.9093 12 35.7975L12 30.1266C12 30.0147 12.0908 29.924 12.2027 29.924H13.2211C13.3766 29.924 13.4747 29.7561 13.4017 29.6189C12.5068 27.9367 12 26.0187 12 23.9868C12 17.3665 17.3728 12 24 12C30.5593 12 35.8897 17.257 35.9983 23.7835C36.0002 23.8953 35.9092 23.9868 35.7973 23.9868H30.1204C30.0084 23.9868 29.918 23.8957 29.9142 23.7839C29.8071 20.6135 27.2004 18.0759 24 18.0759Z" fill="black" fill-opacity="0.75"/>
<rect x="0.3125" y="0.3125" width="47.375" height="47.375" rx="11.6875" stroke="black" stroke-opacity="0.25" stroke-width="0.625"/>
</svg>
