<svg width="128" height="128" viewBox="0 0 128 128" fill="none" xmlns="http://www.w3.org/2000/svg">
<g filter="url(#filter0_d_26_40)">
<rect x="16" y="12" width="96" height="96" rx="24" fill="black"/>
<path d="M64 48.1519C57.4632 48.1519 52.1647 53.445 52.1647 59.9736C52.1647 66.5255 57.4865 71.8481 64 71.8481L87.5945 71.8481C87.8185 71.8481 88 72.0295 88 72.2532V83.5949C88 83.8186 87.8185 84 87.5945 84L40.4055 84C40.1815 84 40 83.8186 40 83.5949L40 72.2532C40 72.0295 40.1815 71.8481 40.4055 71.8481H42.4421C42.7532 71.8481 42.9493 71.5121 42.8034 71.2378C41.0136 67.8735 40 64.0374 40 59.9736C40 46.733 50.7455 36 64 36C77.1185 36 87.7793 46.514 87.9966 59.567C88.0003 59.7907 87.8185 59.9736 87.5945 59.9736H76.2408C76.0168 59.9736 75.836 59.7914 75.8284 59.5678C75.6143 53.2271 70.4008 48.1519 64 48.1519Z" fill="white"/>
<rect x="16.625" y="12.625" width="94.75" height="94.75" rx="23.375" stroke="black" stroke-opacity="0.25" stroke-width="1.25"/>
</g>
<defs>
<filter id="filter0_d_26_40" x="0" y="0" width="128" height="128" filterUnits="userSpaceOnUse" color-interpolation-filters="sRGB">
<feFlood flood-opacity="0" result="BackgroundImageFix"/>
<feColorMatrix in="SourceAlpha" type="matrix" values="0 0 0 0 0 0 0 0 0 0 0 0 0 0 0 0 0 0 127 0" result="hardAlpha"/>
<feMorphology radius="4" operator="dilate" in="SourceAlpha" result="effect1_dropShadow_26_40"/>
<feOffset dy="4"/>
<feGaussianBlur stdDeviation="6"/>
<feComposite in2="hardAlpha" operator="out"/>
<feColorMatrix type="matrix" values="0 0 0 0 0 0 0 0 0 0 0 0 0 0 0 0 0 0 0.5 0"/>
<feBlend mode="normal" in2="BackgroundImageFix" result="effect1_dropShadow_26_40"/>
<feBlend mode="normal" in="SourceGraphic" in2="effect1_dropShadow_26_40" result="shape"/>
</filter>
</defs>
</svg>
