<svg width="24" height="25" viewBox="0 0 24 25" fill="none" xmlns="http://www.w3.org/2000/svg">
<path d="M19.2701 5.83005C17.9401 5.21005 16.5001 4.76005 15.0001 4.50005C14.987 4.49963 14.9739 4.50209 14.9618 4.50728C14.9497 4.51246 14.9389 4.52023 14.9301 4.53005C14.7501 4.86005 14.5401 5.29005 14.4001 5.62005C12.8091 5.38005 11.1911 5.38005 9.60012 5.62005C9.46012 5.28005 9.25012 4.86005 9.06012 4.53005C9.05012 4.51005 9.02012 4.50005 8.99012 4.50005C7.49012 4.76005 6.06012 5.21005 4.72012 5.83005C4.71012 5.83005 4.70012 5.84005 4.69012 5.85005C1.97012 9.92005 1.22012 13.88 1.59012 17.8C1.59012 17.82 1.60012 17.84 1.62012 17.85C3.42012 19.17 5.15012 19.97 6.86012 20.5C6.89012 20.51 6.92012 20.5 6.93012 20.48C7.33012 19.93 7.69012 19.35 8.00012 18.74C8.02012 18.7 8.00012 18.66 7.96012 18.65C7.39012 18.43 6.85012 18.17 6.32012 17.87C6.28012 17.85 6.28012 17.79 6.31012 17.76C6.42012 17.68 6.53012 17.59 6.64012 17.51C6.66012 17.49 6.69012 17.49 6.71012 17.5C10.1501 19.07 13.8601 19.07 17.2601 17.5C17.2801 17.49 17.3101 17.49 17.3301 17.51C17.4401 17.6 17.5501 17.68 17.6601 17.77C17.7001 17.8 17.7001 17.86 17.6501 17.88C17.1301 18.19 16.5801 18.44 16.0101 18.66C15.9701 18.67 15.9601 18.72 15.9701 18.75C16.2901 19.36 16.6501 19.94 17.0401 20.49C17.0701 20.5 17.1001 20.51 17.1301 20.5C18.8501 19.97 20.5801 19.17 22.3801 17.85C22.4001 17.84 22.4101 17.82 22.4101 17.8C22.8501 13.27 21.6801 9.34005 19.3101 5.85005C19.3001 5.84005 19.2901 5.83005 19.2701 5.83005ZM8.52012 15.41C7.49012 15.41 6.63012 14.46 6.63012 13.29C6.63012 12.12 7.47012 11.17 8.52012 11.17C9.58012 11.17 10.4201 12.13 10.4101 13.29C10.4101 14.46 9.57012 15.41 8.52012 15.41ZM15.4901 15.41C14.4601 15.41 13.6001 14.46 13.6001 13.29C13.6001 12.12 14.4401 11.17 15.4901 11.17C16.5501 11.17 17.3901 12.13 17.3801 13.29C17.3801 14.46 16.5501 15.41 15.4901 15.41Z" fill="black" fill-opacity="0.5"/>
</svg>
